<svg width="147" height="128" fill="none" xmlns="http://www.w3.org/2000/svg"><path d="M101.9 117.321v-12.274c2.152 1.528 5.425 2.879 9.126 3.868 3.993 1.069 8.576 1.741 12.974 1.741 4.421 0 9.016-.861 13.005-2.083 3.717-1.139 6.971-2.611 9.095-4.045v12.793c0 2.457-2.057 4.899-6.087 6.776-3.971 1.85-9.583 3.003-16.013 3.003-6.43 0-12.042-1.153-16.013-3.003-4.03-1.877-6.087-4.319-6.087-6.776zm44.2-13.683l-.629-.866c-1.881 1.366-5.122 2.894-8.993 4.08-3.86 1.183-8.274 2.004-12.478 2.004-4.227 0-8.654-.648-12.509-1.679-3.877-1.037-7.085-2.437-8.936-3.886l-.655.837V86.55c2.133 1.535 5.385 3.05 9.09 4.206 3.993 1.246 8.589 2.1 13.01 2.1 4.412 0 9.001-.782 12.99-1.928 3.716-1.068 6.977-2.47 9.11-3.9v16.61zm0-34.61v17.11l-.629-.866c-1.871 1.36-5.104 2.813-8.978 3.926-3.859 1.11-8.28 1.859-12.493 1.859-4.204 0-8.618-.816-12.473-2.02-3.87-1.207-7.1-2.781-8.972-4.246l-.655.837v-16.58c2.141 1.533 5.402 2.977 9.105 4.063 3.993 1.17 8.584 1.947 12.995 1.947 4.418 0 9.011-.835 13-2.032 3.717-1.116 6.973-2.566 9.1-3.998zm-43.545-1.737l-.655.837v-17.08c2.142 1.532 5.403 2.972 9.106 4.052 3.993 1.165 8.584 1.936 12.994 1.936 4.418 0 9.01-.829 12.999-2.02 3.717-1.111 6.973-2.556 9.101-3.988v17.11l-.629-.866c-1.878 1.364-5.116 2.867-8.988 4.03-3.86 1.158-8.276 1.956-12.483 1.956-4.214 0-8.633-.745-12.488-1.875-3.873-1.135-7.094-2.634-8.957-4.092zm0-18l-.655.837v-4.449c0-2.458 2.057-4.899 6.087-6.776 3.971-1.85 9.583-3.003 16.013-3.003 6.436 0 12.049 1.1 16.018 2.922 4.017 1.844 6.082 4.283 6.082 6.857v4.459l-.629-.866c-1.877 1.364-5.115 2.861-8.987 4.019-3.86 1.153-8.277 1.945-12.484 1.945-4.215 0-8.634-.74-12.49-1.864-3.872-1.13-7.093-2.623-8.955-4.08zM50.9 117.207v-13.16c2.177 1.553 5.507 3.095 9.304 4.274 4.082 1.268 8.782 2.141 13.296 2.141 4.521 0 9.223-.932 13.302-2.227 3.81-1.21 7.136-2.757 9.298-4.209v13.181c0 2.485-2.104 4.956-6.227 6.856-4.061 1.871-9.8 3.037-16.373 3.037s-12.312-1.166-16.373-3.037c-4.123-1.9-6.227-4.371-6.227-6.856zm45.2-14.068l-.625-.87c-1.931 1.388-5.257 2.993-9.218 4.25-3.952 1.255-8.466 2.143-12.757 2.143-4.298 0-8.815-.834-12.763-2.06-3.96-1.23-7.27-2.831-9.186-4.314l-.651.841v-17.58c2.163 1.558 5.48 3.219 9.279 4.52 4.082 1.398 8.79 2.405 13.321 2.405 4.522 0 9.224-.935 13.302-2.233 3.81-1.213 7.136-2.762 9.298-4.215v17.113zm0-35.113V85.14l-.625-.87c-1.931 1.388-5.258 2.996-9.219 4.256-3.951 1.258-8.465 2.149-12.756 2.149-4.282 0-8.79-.956-12.738-2.308-3.957-1.355-7.28-3.084-9.211-4.578l-.651.841V68.545c2.19 1.549 5.534 2.98 9.327 4.045 4.083 1.147 8.774 1.896 13.273 1.896 4.522 0 9.225-.938 13.303-2.24 3.81-1.215 7.136-2.767 9.297-4.22zm-44.55-1.238l-.65.841v-4.836c0-2.485 2.104-4.956 6.227-6.856 4.061-1.871 9.8-3.037 16.373-3.037s12.312 1.166 16.373 3.037c4.123 1.9 6.227 4.371 6.227 6.856v4.346l-.625-.87c-1.932 1.388-5.259 2.999-9.22 4.263-3.95 1.26-8.465 2.154-12.755 2.154-4.313 0-8.84-.72-12.786-1.83-3.966-1.113-7.261-2.596-9.163-4.068zM.9 117.167v-13.611c2.121 1.561 5.36 3.199 9.065 4.477 3.992 1.377 8.598 2.361 13.035 2.361 4.428 0 9.027-.912 13.016-2.19 3.716-1.19 6.964-2.717 9.084-4.171v13.134c0 2.508-2.067 4.986-6.092 6.888-3.969 1.876-9.58 3.045-16.008 3.045-6.428 0-12.04-1.169-16.008-3.045C2.967 122.153.9 119.675.9 117.167zm44.2-14.031l-.634-.86c-1.885 1.389-5.13 2.975-8.999 4.214-3.86 1.236-8.27 2.104-12.467 2.104-4.188 0-8.592-.933-12.448-2.263-3.865-1.333-7.108-3.04-8.992-4.536l-.66.831v-17.07c2.123 1.56 5.363 3.185 9.068 4.45C13.96 91.37 18.565 92.34 23 92.34c4.424 0 9.145-.898 13.256-2.16 3.542-1.087 6.695-2.465 8.844-3.821v16.777zm0-18.679l-.134-.181c-1.876 1.382-5.237 2.955-9.239 4.184-3.987 1.224-8.526 2.08-12.727 2.08-4.19 0-8.595-.92-12.45-2.237-3.866-1.32-7.107-3.013-8.99-4.508l-.66.831v-3.793c0-2.508 2.067-4.986 6.092-6.888C10.96 72.069 16.572 70.9 23 70.9c6.547 0 12.157 1.115 16.094 2.962 3.975 1.863 6.006 4.337 6.006 6.97v3.625zM23 60l32-32h41l27-27m0 0v14m0-14h-14" stroke="#000" stroke-width="1.8"/></svg>